<?xml version="1.0" encoding="UTF-8" standalone="no"?><!DOCTYPE svg PUBLIC "-//W3C//DTD SVG 1.1//EN" "http://www.w3.org/Graphics/SVG/1.1/DTD/svg11.dtd"><svg width="100%" height="100%" viewBox="0 0 1400 1454" version="1.1" xmlns="http://www.w3.org/2000/svg" xmlns:xlink="http://www.w3.org/1999/xlink" xml:space="preserve" xmlns:serif="http://www.serif.com/" style="fill-rule:evenodd;clip-rule:evenodd;stroke-linejoin:round;stroke-miterlimit:2;"><path d="M762.984,908.389c-0.792,36.161 -10.074,84.133 -11.15,124.97c-5.147,195.496 -13.185,418.434 -20.698,418.593c-88.035,1.864 -125.644,5.966 -124.639,-28.275c2.422,-82.558 7.082,-104.607 -25.755,-226.047c-18.679,-69.079 -34.334,-60.005 -73.272,-119.414c-25.069,-38.249 -52.419,-74.741 -64.829,-44.942c-26.894,64.577 -93.786,258.149 -175.819,388.182c-32.824,52.031 -50.659,20.497 -47.411,11.088c3.629,-10.512 10.796,-6.892 62.153,-124.342c12.129,-27.739 94.412,-215.916 113.011,-361.169c12.216,-95.406 -353.73,-286.76 -388.066,-314.113c-10.678,-28.445 -8.439,-76.124 8.345,-104.673c18.83,-8.625 72.64,-33.272 255.406,-42.371c76.815,-3.824 197.178,32.796 205.417,-6.947c21.715,-104.756 33.873,-423.938 60.833,-453.138c20.335,-22.025 115.961,-47.361 172.873,5.574c3.548,3.3 39.359,113.505 42.078,126.985c26.507,131.4 18.206,265.83 32.427,276.42c10.492,7.813 11.63,1.704 65.348,-16.542c17.246,-5.526 278.051,-87.631 280.423,-87.85c12.226,-1.133 229.935,-98.193 258.286,-34.866c43.408,96.96 -49.864,189.939 -90.792,235.998c-65.371,73.565 -324.182,223.631 -314.238,236.607c21.465,28.011 213.183,472.036 214.158,472.087c0,0 -21.091,-238.227 12.828,-337.036c28.526,-83.098 160.537,-88.103 152.838,-18.235c-16.585,150.497 -36.31,224.088 -41.185,316.277c-6.358,120.232 11.208,223.328 -47.29,239.711c-54.004,15.124 -75.887,0.446 -97.226,2.733c-24.025,2.575 -66.098,-94.145 -102.194,-185.282c-34.262,-86.505 -143.17,-329.602 -169.069,-397c-3.522,-9.165 -60.581,69.351 -71.206,78.503c-32.391,27.899 -60.169,-11.549 -71.585,-31.483c1.044,-47.657 1.382,-88.84 0.747,-118.134c0.332,-0.435 291.036,-169.516 347.984,-238.339c51.461,-62.192 73.431,-56.662 134.669,-136.008c28.564,-37.01 -49.432,-17.27 -68.659,-5.644c-13.398,8.101 -197.443,75.834 -281.271,103.215c-135.823,44.365 -126.567,67.963 -127.11,128.939c-0.493,55.355 -8.721,67.645 -6.07,132.796c0.186,4.581 -3.024,128.404 -0.292,133.174Zm-121.281,-265.884l-2.63,-16.337c-11.834,-35.85 -108.443,-10.691 -113.371,23.72c-24.827,173.369 -28.428,172.664 -29.291,187.85c-2.765,48.68 163.684,330.161 187.462,311.829c11.994,-9.247 -1.4,-52.654 -1.461,-53.846c-6.217,-120.443 -18.445,-172.999 -19.46,-195.698c-4.397,-98.362 -20.53,-226.294 -21.249,-257.517Zm-46.358,-296.365c-0.518,-2.209 -7.102,-30.287 -18.301,-21.673c-5.383,4.14 -22.914,142.595 -22.64,145.868c2.383,28.508 49.777,14.772 50.884,14.03c9.212,-6.169 19.375,-12.975 -9.942,-138.226Zm-149.058,366.259c3.685,-28.608 3.674,-28.423 3.98,-30.897c6.375,-51.498 -78.309,-11.708 -79.828,-8.977c-3.169,5.696 -8.305,14.93 42.639,69.423c22.578,24.151 27.472,3.139 33.21,-29.549Z" style="fill:#fefefe;"/></svg>